<?xml version="1.0" encoding="utf-8"?>
<!-- Generator: Adobe Illustrator 16.0.0, SVG Export Plug-In . SVG Version: 6.00 Build 0)  -->
<!DOCTYPE svg PUBLIC "-//W3C//DTD SVG 1.1//EN" "http://www.w3.org/Graphics/SVG/1.1/DTD/svg11.dtd">
<svg version="1.1" id="Layer_1" xmlns="http://www.w3.org/2000/svg" xmlns:xlink="http://www.w3.org/1999/xlink" x="0px" y="0px"
	 width="32px" height="32px" viewBox="0 0 32 32" enable-background="new 0 0 32 32" xml:space="preserve">
<path fill="#FFFFFF" d="M31.109,28.336c-0.2-0.133-3.848-2.525-9.272-3.699c1.99-2.521,3.269-5.912,3.812-8.169
	c0.754-3.128,0.461-9.248-2.543-13.062C21.35,1.177,18.893,0,16,0c-2.892,0-5.349,1.178-7.104,3.406
	C5.892,7.219,5.6,13.339,6.353,16.467c0.543,2.258,1.82,5.648,3.811,8.169c-5.425,1.175-9.072,3.566-9.272,3.699
	c-0.733,0.488-1.061,1.399-0.805,2.242C0.341,31.422,1.12,32,2,32h28c0.881,0,1.658-0.578,1.914-1.422
	C32.171,29.736,31.843,28.824,31.109,28.336z"/>
</svg>
