<?xml version="1.0" encoding="utf-8"?>
<!-- Generator: Adobe Illustrator 16.0.0, SVG Export Plug-In . SVG Version: 6.00 Build 0)  -->
<!DOCTYPE svg PUBLIC "-//W3C//DTD SVG 1.1//EN" "http://www.w3.org/Graphics/SVG/1.1/DTD/svg11.dtd">
<svg version="1.1" id="Warstwa_1" xmlns="http://www.w3.org/2000/svg" xmlns:xlink="http://www.w3.org/1999/xlink" x="0px" y="0px"
	 width="933.093px" height="261.026px" viewBox="0 0 933.093 261.026" enable-background="new 0 0 933.093 261.026"
	 xml:space="preserve">
<g>
	<polygon fill="#21A1A7" points="918.882,102.491 918.882,53.491 869.293,53.491 818.882,53.491 818.882,103.674 818.882,152.491 
		868.882,152.491 868.882,155.491 818.882,155.491 818.882,203.491 869.293,203.491 918.882,203.491 918.882,153.674 
		918.882,105.491 868.882,105.491 868.882,102.491 	"/>
	<polygon fill="#21A1A7" points="768.882,153.674 768.882,203.491 718.882,203.491 718.882,253.491 769.293,253.491 
		815.882,253.491 815.882,105.491 768.882,105.491 	"/>
	<rect x="768.882" y="53.491" fill="#21A1A7" width="47" height="49"/>
	<g>
		<path fill="#FFFFFF" d="M9.648,95.477V63.9h66.411v11.187c14.915-8.872,29.736-13.311,44.463-13.311
			c17.651,0,31.341,6.23,41.064,18.691c17.651-12.461,36.108-18.691,55.366-18.691c11.421,0,20.696,2.102,27.825,6.301
			c7.126,4.202,12.013,9.842,14.655,16.922s3.965,17.795,3.965,32.144v52.251h22.656v31.577h-66.411v-80.288
			c0-14.349-6.184-21.523-18.55-21.523c-9.724,0-20.249,3.115-31.577,9.346v60.889h22.656v31.577h-66.411v-79.014
			c0-15.198-5.947-22.798-17.842-22.798c-9.253,0-19.873,3.115-31.86,9.346v60.889h22.656v31.577H9.648v-31.577h22.656V95.477H9.648
			z"/>
		<path fill="#FFFFFF" d="M401.999,159.623l33.984,10.903c-14.255,22.373-36.533,33.56-66.836,33.56
			c-24.167,0-43.024-6.372-56.569-19.116c-13.548-12.744-20.32-29.5-20.32-50.269c0-21.146,6.985-38.799,20.957-52.959
			c13.97-14.16,31.766-21.24,53.384-21.24c15.669,0,29.217,3.965,40.64,11.895c11.421,7.93,19.351,17.795,23.789,29.595
			c4.437,11.802,6.655,24.971,6.655,39.507H335.587c0.659,12.461,4.602,21.289,11.824,26.479c7.221,5.192,14.844,7.788,22.868,7.788
			C380.758,175.765,391.33,170.384,401.999,159.623z M393.644,117.142c-1.016-7.646-4.007-14.16-8.974-19.541
			c-4.97-5.381-11.749-8.071-20.338-8.071c-16.05,0-25.396,9.204-28.037,27.612H393.644z"/>
		<path fill="#FFFFFF" d="M560.989,159.623l33.984,10.903c-14.256,22.373-36.533,33.56-66.836,33.56
			c-24.168,0-43.024-6.372-56.569-19.116c-13.548-12.744-20.32-29.5-20.32-50.269c0-21.146,6.985-38.799,20.957-52.959
			c13.97-14.16,31.765-21.24,53.384-21.24c15.668,0,29.217,3.965,40.639,11.895s19.352,17.795,23.789,29.595
			c4.438,11.802,6.656,24.971,6.656,39.507H494.578c0.659,12.461,4.602,21.289,11.823,26.479c7.221,5.192,14.844,7.788,22.869,7.788
			C539.749,175.765,550.319,170.384,560.989,159.623z M552.633,117.142c-1.016-7.646-4.006-14.16-8.973-19.541
			c-4.971-5.381-11.75-8.071-20.338-8.071c-16.051,0-25.396,9.204-28.037,27.612H552.633z"/>
		<path fill="#FFFFFF" d="M604.715,95.477V63.9h17.416V42.376l43.756-31.436V63.9h25.205v31.577h-25.205v59.446
			c0,5.392,0.684,9.009,2.053,10.854c1.367,1.845,4.508,2.766,9.416,2.766c4.059,0,8.639-0.942,13.736-2.832v30.303
			c-11.236,4.626-22.232,6.938-32.994,6.938c-23.979,0-35.967-11.91-35.967-35.73V95.477H604.715z"/>
		<path fill="#C2D956" d="M719.526,200.97v-47.437h47.295v47.437H719.526z"/>
	</g>
</g>
</svg>
