<?xml version="1.0" encoding="utf-8"?>
<!-- Generator: Adobe Illustrator 16.0.0, SVG Export Plug-In . SVG Version: 6.00 Build 0)  -->
<!DOCTYPE svg PUBLIC "-//W3C//DTD SVG 1.1//EN" "http://www.w3.org/Graphics/SVG/1.1/DTD/svg11.dtd">
<svg version="1.1" id="Layer_1" xmlns="http://www.w3.org/2000/svg" xmlns:xlink="http://www.w3.org/1999/xlink" x="0px" y="0px"
	 width="23.492px" height="24.053px" viewBox="0 0 23.492 24.053" enable-background="new 0 0 23.492 24.053" xml:space="preserve">
<path fill="#4F4A56" d="M17.803,15.688c-1.592,0-2.957,0.92-3.638,2.247l-6.097-2.622c0.236-0.517,0.375-1.086,0.375-1.688
	c0-0.811-0.242-1.56-0.647-2.194l7.229-4.501c0.75,0.963,1.908,1.595,3.223,1.595c2.262,0,4.102-1.839,4.102-4.101
	s-1.84-4.103-4.102-4.103s-4.102,1.842-4.102,4.103c0,0.589,0.131,1.146,0.354,1.653l-7.35,4.575c-0.734-0.694-1.721-1.13-2.81-1.13
	c-2.261,0-4.101,1.84-4.101,4.103c0,2.261,1.839,4.101,4.101,4.101c1.294,0,2.436-0.614,3.188-1.553l6.284,2.701
	c-0.067,0.296-0.111,0.601-0.111,0.917c0,2.261,1.84,4.101,4.102,4.101s4.102-1.84,4.102-4.101
	C21.904,17.528,20.063,15.688,17.803,15.688z"/>
</svg>
