<?xml version="1.0" encoding="utf-8"?>
<!-- Generator: Adobe Illustrator 16.0.0, SVG Export Plug-In . SVG Version: 6.00 Build 0)  -->
<!DOCTYPE svg PUBLIC "-//W3C//DTD SVG 1.1//EN" "http://www.w3.org/Graphics/SVG/1.1/DTD/svg11.dtd">
<svg version="1.1" id="Layer_1" xmlns="http://www.w3.org/2000/svg" xmlns:xlink="http://www.w3.org/1999/xlink" x="0px" y="0px"
	 width="22.568px" height="24.053px" viewBox="0 0 22.568 24.053" enable-background="new 0 0 22.568 24.053" xml:space="preserve">
<path fill="#FFFFFF" d="M22.569,4.804c-0.825,0.367-1.715,0.614-2.646,0.725c0.952-0.569,1.682-1.473,2.026-2.549
	c-0.892,0.529-1.877,0.912-2.927,1.119c-0.841-0.895-2.038-1.455-3.362-1.455c-2.544,0-4.606,2.063-4.606,4.607
	c0,0.36,0.041,0.712,0.119,1.05C7.345,8.108,3.95,6.274,1.677,3.487C1.28,4.167,1.054,4.958,1.054,5.803
	c0,1.599,0.813,3.009,2.049,3.834c-0.754-0.022-1.466-0.23-2.086-0.575c0,0.02,0,0.039,0,0.059c0,2.231,1.588,4.094,3.696,4.518
	c-0.387,0.104-0.794,0.161-1.214,0.161c-0.297,0-0.586-0.028-0.867-0.083c0.586,1.83,2.288,3.162,4.303,3.199
	c-1.576,1.235-3.563,1.973-5.721,1.973c-0.372,0-0.738-0.021-1.1-0.064c2.039,1.308,4.461,2.069,7.063,2.069
	c8.474,0,13.107-7.021,13.107-13.106c0-0.2-0.005-0.399-0.014-0.598C21.171,6.54,21.952,5.728,22.569,4.804z"/>
</svg>
