<svg xmlns="http://www.w3.org/2000/svg" width="96" height="96" viewBox="0 0 96 96"><path fill="#fff" d="M48 4C23.7 4 4 23.7 4 48s19.7 44 44 44 44-19.7 44-44S72.3 4 48 4zm0 80c-19.882 0-36-16.118-36-36s16.118-36 36-36 36 16.118 36 36-16.118 36-36 36zM52 46.343V24c0-2.21-1.79-4-4-4s-4 1.79-4 4v24c0 .01.003.018.003.027 0 .253.026.506.076.755.023.122.068.233.103.354.04.132.07.267.122.396.058.138.136.264.208.394.054.1.097.2.16.296.147.22.314.428.5.612l11.312 11.312c1.563 1.563 4.098 1.563 5.658 0 1.563-1.562 1.563-4.097 0-5.655L52 46.344z"/></svg>