<svg height="96" viewBox="0 0 96 96" width="96" xmlns="http://www.w3.org/2000/svg"><path d="M48 4C23.7 4 4 23.7 4 48s19.7 44 44 44 44-19.7 44-44S72.3 4 48 4zm0 80c-19.882 0-36-16.118-36-36s16.118-36 36-36 36 16.118 36 36-16.118 36-36 36zM52 46.343V24c0-2.21-1.79-4-4-4s-4 1.79-4 4v24c0 .01.003.018.003.027 0 .253.026.506.076.755.023.123.068.234.103.354.04.132.07.266.122.395.058.14.136.265.208.395.054.1.097.2.16.295.147.22.314.428.5.613l11.312 11.312c1.562 1.562 4.097 1.562 5.658 0 1.562-1.562 1.562-4.097 0-5.656L52 46.342z"/></svg>