<svg height="32" viewBox="0 0 32 32" width="32" xmlns="http://www.w3.org/2000/svg"><path d="M31.11 28.336c-.2-.133-3.848-2.525-9.273-3.7 1.99-2.52 3.268-5.91 3.81-8.168.755-3.128.462-9.248-2.542-13.062C21.35 1.176 18.892 0 16 0c-2.892 0-5.35 1.178-7.104 3.406C5.892 7.22 5.6 13.34 6.353 16.466c.543 2.258 1.82 5.65 3.81 8.17-5.424 1.174-9.07 3.566-9.27 3.7-.734.487-1.062 1.4-.806 2.24C.34 31.423 1.12 32 2 32h28c.88 0 1.658-.578 1.914-1.422.257-.842-.07-1.754-.804-2.242zm-10.843-4.938l-.326.414c-2.384 2.74-5.494 2.74-7.878 0l-.327-.414c-2.785-3.53-4.167-8.197-3.572-12.65C8.708 6.468 11.16 2 16 2s7.293 4.47 7.838 8.75c.593 4.454-.784 9.117-3.57 12.648zM2 30c.138-.092 3.526-2.314 8.586-3.408l2.484-.537c.887.582 1.86.945 2.93.945s2.043-.363 2.93-.945l2.484.537C26.434 27.678 29.81 29.875 30 30H2z" fill="#333"/></svg>