<svg xmlns="http://www.w3.org/2000/svg" width="933.093" height="261.026" viewBox="0 0 933.093 261.026"><path fill="#21A1A7" d="M918.882 102.49v-49h-100v99.001h50v3h-50v48h100v-97.999h-50v-3zM768.882 153.674v49.817h-50v50h97v-148h-47zM768.882 53.49h47v49h-47z"/><path fill="#fff" d="M9.648 95.477V63.9h66.41v11.187c14.916-8.872 29.737-13.31 44.464-13.31 17.65 0 31.34 6.23 41.064 18.69 17.65-12.46 36.108-18.69 55.366-18.69 11.42 0 20.696 2.1 27.825 6.3C251.903 72.28 256.79 77.92 259.432 85s3.965 17.794 3.965 32.143v52.25h22.656v31.578h-66.41v-80.287c0-14.35-6.185-21.523-18.55-21.523-9.725 0-20.25 3.115-31.578 9.346v60.89h22.656v31.576h-66.41v-79.014c0-15.198-5.947-22.798-17.842-22.798-9.253 0-19.873 3.115-31.86 9.346v60.89h22.656v31.576H9.648v-31.577h22.656V95.477H9.648zM402 159.623l33.983 10.903c-14.255 22.373-36.533 33.56-66.836 33.56-24.167 0-43.024-6.372-56.57-19.116-13.547-12.744-20.32-29.5-20.32-50.27 0-21.145 6.986-38.798 20.958-52.958 13.97-14.16 31.766-21.24 53.384-21.24 15.668 0 29.216 3.965 40.64 11.895 11.42 7.93 19.35 17.795 23.788 29.595 4.437 11.802 6.655 24.97 6.655 39.507H335.587c.66 12.46 4.602 21.288 11.824 26.478 7.222 5.192 14.845 7.788 22.87 7.788 10.478 0 21.05-5.382 31.72-16.143zm-8.356-42.48c-1.016-7.647-4.007-14.16-8.974-19.542-4.97-5.38-11.75-8.07-20.338-8.07-16.05 0-25.396 9.204-28.037 27.612h57.35zM560.99 159.623l33.983 10.903c-14.256 22.373-36.533 33.56-66.836 33.56-24.168 0-43.024-6.372-56.57-19.116-13.547-12.744-20.32-29.5-20.32-50.27 0-21.145 6.986-38.798 20.958-52.958 13.97-14.16 31.765-21.24 53.384-21.24 15.667 0 29.216 3.965 40.638 11.895s19.352 17.795 23.79 29.595c4.437 11.802 6.655 24.97 6.655 39.507H494.578c.66 12.46 4.602 21.288 11.823 26.478 7.222 5.192 14.845 7.788 22.87 7.788 10.48 0 21.05-5.382 31.72-16.143zm-8.357-42.48c-1.016-7.647-4.006-14.16-8.973-19.542-4.97-5.38-11.75-8.07-20.338-8.07-16.05 0-25.396 9.204-28.037 27.612h57.348zM604.715 95.477V63.9h17.416V42.376l43.757-31.436V63.9h25.205v31.577h-25.205v59.446c0 5.392.684 9.01 2.053 10.854 1.367 1.845 4.508 2.766 9.416 2.766 4.06 0 8.64-.942 13.736-2.832v30.304c-11.236 4.626-22.232 6.938-32.994 6.938-23.98 0-35.967-11.91-35.967-35.73V95.477h-17.415z"/><path fill="#C2D956" d="M719.526 200.97v-47.437h47.295v47.437h-47.294z"/></svg>