<svg xmlns="http://www.w3.org/2000/svg" width="23.492" height="24.053" viewBox="0 0 23.492 24.053"><path fill="#4F4A56" d="M17.803 15.688c-1.592 0-2.957.92-3.638 2.247l-6.097-2.622c.236-.517.375-1.086.375-1.688 0-.81-.242-1.56-.647-2.194l7.23-4.5c.75.963 1.907 1.595 3.222 1.595 2.262 0 4.102-1.84 4.102-4.1S20.51.32 18.248.32s-4.102 1.843-4.102 4.104c0 .59.13 1.146.354 1.653l-7.35 4.575c-.734-.694-1.72-1.13-2.81-1.13-2.26 0-4.1 1.84-4.1 4.103 0 2.26 1.838 4.1 4.1 4.1 1.294 0 2.436-.613 3.188-1.552l6.284 2.7c-.067.297-.11.602-.11.918 0 2.262 1.84 4.102 4.1 4.102s4.103-1.84 4.103-4.1c0-2.264-1.842-4.104-4.102-4.104z"/></svg>