<svg xmlns="http://www.w3.org/2000/svg" width="23.492" height="24.053" viewBox="0 0 23.492 24.053"><path fill="#231F20" d="M17.802 15.688c-1.59 0-2.957.92-3.637 2.247l-6.097-2.622c.236-.517.375-1.086.375-1.69 0-.81-.242-1.558-.647-2.193l7.23-4.5c.75.962 1.907 1.594 3.222 1.594 2.262 0 4.102-1.84 4.102-4.1S20.51.32 18.248.32s-4.1 1.842-4.1 4.103c0 .59.13 1.146.353 1.653l-7.35 4.576c-.733-.695-1.72-1.13-2.81-1.13-2.26 0-4.1 1.84-4.1 4.102 0 2.26 1.84 4.1 4.1 4.1 1.295 0 2.437-.613 3.19-1.552l6.282 2.7c-.067.297-.11.602-.11.918 0 2.26 1.84 4.1 4.1 4.1 2.262 0 4.102-1.84 4.102-4.1 0-2.262-1.84-4.102-4.102-4.102zm.445-14.368c1.71 0 3.102 1.392 3.102 3.102s-1.393 3.1-3.103 3.1c-1.71 0-3.1-1.39-3.1-3.1s1.39-3.102 3.1-3.102zM4.343 16.723c-1.71 0-3.1-1.39-3.1-3.1s1.39-3.103 3.1-3.103 3.1 1.392 3.1 3.102-1.39 3.1-3.1 3.1zm13.46 6.166c-1.71 0-3.102-1.392-3.102-3.102s1.392-3.102 3.102-3.102 3.102 1.392 3.102 3.102-1.392 3.1-3.102 3.1z"/></svg>