<svg xmlns="http://www.w3.org/2000/svg" width="22.569" height="24.053" viewBox="0 0 22.569 24.053"><path d="M22.57 4.804c-.827.367-1.716.614-2.647.725.952-.57 1.682-1.474 2.026-2.55-.892.53-1.877.912-2.927 1.12-.84-.896-2.038-1.456-3.363-1.456-2.544 0-4.606 2.063-4.606 4.607 0 .362.04.713.12 1.05-3.83-.192-7.224-2.026-9.497-4.813-.397.68-.623 1.47-.623 2.316 0 1.6.813 3.01 2.05 3.834-.755-.023-1.467-.23-2.087-.575v.058c0 2.232 1.588 4.094 3.696 4.518-.387.104-.794.16-1.214.16-.298 0-.587-.027-.868-.082.586 1.83 2.288 3.162 4.303 3.2-1.576 1.235-3.563 1.972-5.72 1.972-.373 0-.74-.022-1.1-.065 2.04 1.308 4.46 2.07 7.063 2.07 8.474 0 13.107-7.02 13.107-13.107 0-.2-.004-.4-.013-.597.9-.65 1.68-1.462 2.297-2.386z"/></svg>