<svg xmlns="http://www.w3.org/2000/svg" width="22.568" height="24.053" viewBox="0 0 22.568 24.053"><path fill="#fff" d="M22.57 4.804c-.826.367-1.716.614-2.647.725.952-.57 1.682-1.474 2.026-2.55-.893.53-1.878.912-2.928 1.12-.84-.896-2.038-1.456-3.362-1.456-2.544 0-4.606 2.063-4.606 4.607 0 .36.04.713.12 1.05-3.83-.192-7.224-2.026-9.497-4.813-.397.68-.623 1.47-.623 2.316 0 1.6.813 3.01 2.05 3.834-.755-.022-1.467-.23-2.087-.575v.06c0 2.23 1.588 4.093 3.696 4.517-.387.103-.794.16-1.214.16-.298 0-.587-.028-.868-.083.586 1.83 2.288 3.162 4.303 3.2-1.576 1.234-3.563 1.972-5.72 1.972-.373 0-.74-.022-1.1-.065 2.038 1.308 4.46 2.07 7.062 2.07 8.474 0 13.107-7.022 13.107-13.107 0-.2-.005-.4-.014-.598.9-.65 1.682-1.462 2.3-2.386z"/></svg>