<svg xmlns="http://www.w3.org/2000/svg" width="143" height="40" viewBox="0 0 143 40"><g fill="#122E52"><path d="M94.038 13.275H81.78l-4.817 5.853-2.29 2.946V0H66.09v39.332h8.584v-7.03l2.958-2.9 5.815 9.93H94.61l-10.73-15.83zM31.276 30.69L27.11 13.04H17.17l-4.165 17.65-3.215-17.65H.87l6.544 25.98h11.503l3.22-13.63 3.224 13.63h11.504l6.546-25.98h-8.92zM141.647 20.76l.478-7.557h-7.854L133.698 16c-1.805-1.96-4.047-3.584-7.996-3.584-7.143 0-11.045 4.762-11.045 13.792C114.655 35.24 118.557 40 125.7 40c3.95 0 6.192-1.618 7.997-3.58l.574 2.796h7.855l-.478-7.557v-10.9zm-8.565 8.788c-1.097 1.472-2.81 2.454-5.05 2.454-2.567 0-4.615-1.72-4.615-5.794 0-4.073 2.047-5.792 4.615-5.792 2.24 0 3.953.983 5.05 2.455v6.678z"/><ellipse cx="52.627" cy="5.206" rx="4.908" ry="5.059"/><path d="M47.72 13.123v26.269h12.3V33.88h-3.855V18.66h3.855v-5.537h-3.713z"/><ellipse cx="105.458" cy="5.206" rx="4.91" ry="5.059"/><path d="M98.065 13.123v5.536h3.853v15.22h-3.853v5.51h12.3V13.124h-8.586z"/></g></svg>